<svg xmlns="http://www.w3.org/2000/svg" width="256" height="256" viewBox="0 0 256 256">
  <defs><radialGradient id="g" cx="50%" cy="40%" r="70%">
    <stop offset="0%" stop-color="#8ea0ff"/><stop offset="100%" stop-color="#4b3a80"/></radialGradient></defs>
  <rect width="256" height="256" rx="32" fill="#0d1120"/>
  <circle cx="128" cy="128" r="96" fill="url(#g)" opacity=".35"/>
  <g fill="#c9d2ff">
    <path d="M128 52c-28 0-48 22-48 52 0 18 7 33 20 44-9 7-14 16-14 26 0 15 12 30 42 30s42-15 42-30c0-10-5-19-14-26 13-11 20-26 20-44 0-30-20-52-48-52zm0 16c20 0 32 16 32 36s-12 36-32 36-32-16-32-36 12-36 32-36z"/>
    <text x="128" y="138" text-anchor="middle" font-size="72" font-family="Georgia,serif" fill="#e7eaff">Ѫ</text>
  </g>
</svg>